
<svg version="1.1" xmlns="http://www.w3.org/2000/svg" viewBox="0 0 490.5793188098446 514.9470877227374" width="490.5793188098446" height="514.9470877227374">
  <!-- svg-source:excalidraw -->
  
  <defs>
    <style>
      @font-face {
        font-family: "Virgil";
        src: url("https://excalidraw.com/Virgil.woff2");
      }
      @font-face {
        font-family: "Cascadia";
        src: url("https://excalidraw.com/Cascadia.woff2");
      }
    </style>
  </defs>
  <rect x="0" y="0" width="490.5793188098446" height="514.9470877227374" fill="#ffffff"></rect><g stroke-linecap="round" transform="translate(181 10) rotate(0 48.5 124.5)"><path d="M0 0 C0 0, 0 0, 0 0 M0 0 C0 0, 0 0, 0 0 M-0.33 6.11 C1.79 5.48, 2.18 4, 5.03 0.62 M-0.35 6.58 C1.8 4.06, 4.21 1.96, 5.09 0.01 M-0.26 12.77 C3.44 6.25, 8.08 4.03, 11.73 0.67 M-0.51 11.86 C2.91 8.56, 6.17 4.37, 11.08 -0.49 M-1.38 19.09 C3.23 13.99, 9.4 10.29, 15.35 1.08 M-0.78 17.46 C4.2 12.95, 10.43 6.46, 16.36 0.77 M1.2 23.04 C8.76 13.5, 15.51 4.86, 23.08 -0.14 M1.17 24.72 C4.06 19.78, 8.48 14.96, 21.62 0.2 M-0.7 31.1 C3.8 22.94, 10.48 18.22, 26.84 -0.87 M0.73 30.02 C6.65 23.09, 12.47 17, 26.62 0.05 M-1.34 38.61 C5.19 27.72, 14.01 20.8, 31.36 -0.44 M0.1 36.99 C10.54 24.6, 21.28 12.43, 32.54 0.41 M0.95 41.12 C14 27.37, 26.68 13.23, 35.23 1.48 M-0.38 42.8 C10.03 29.32, 21.54 16.1, 37.3 0.23 M-0.12 47.61 C9.82 35.2, 23.52 22.48, 44.22 -0.19 M0.27 49.45 C10.77 37.37, 19.35 26.78, 42.25 -0.72 M1.83 56.14 C14.49 41.08, 27.57 26.12, 48.11 1.04 M-0.26 54.51 C16.87 35.35, 33.02 17.34, 47.44 1.21 M-1.32 62.83 C13.98 46.1, 25.45 30.68, 53.97 -1.92 M-0.36 60.18 C20.01 37.01, 39.1 15.08, 52.32 -0.45 M0.46 65.5 C16.88 47.06, 35.43 27.05, 58.99 -0.68 M-0.43 68.06 C10.49 52.86, 23.38 38.97, 58.93 0.8 M-0.56 72.91 C19.52 51.31, 37.49 31.55, 63.8 -0.57 M-0.38 72.44 C22.44 46.26, 45.44 20.2, 64.64 0.39 M0.23 79.89 C16.53 59.58, 37.49 39.58, 69.26 0.43 M-0.13 78.57 C16.26 58.73, 33.29 39.79, 69.39 -0.22 M-1.58 85.07 C20.71 60.16, 40.08 36.72, 73.81 -1.49 M-0.56 84.45 C28.01 54.28, 54.48 21.92, 74.38 0.43 M-0.55 89.83 C27.61 59.81, 53.83 28.66, 78.24 1.07 M0.72 90.86 C22.32 65.21, 45.15 39.16, 79.3 0.89 M1.17 95.91 C21.77 70.58, 46.44 46.3, 87.02 1.57 M0.45 97.13 C25.55 67.15, 49.9 38.94, 85.02 -1.24 M0.01 104.69 C23.56 80.3, 44.24 55.9, 89.13 0.53 M-0.83 103.44 C26.14 72.98, 52.53 44.26, 90.88 -0.19 M-0.93 110.32 C35.17 67.67, 73.63 27.38, 95.35 0.44 M-0.23 110.1 C20.01 86.57, 40.99 62.16, 95.34 -0.09 M0.72 115.43 C19.77 93.57, 41.95 68.84, 97.76 0.21 M-0.46 116.3 C27.39 85.37, 54.44 53.21, 99.89 1.68 M-0.53 120.07 C36.96 79.14, 77.72 34.34, 98.4 6.85 M-0.64 121.18 C28.92 89.09, 56.11 57.01, 99.17 7.18 M-1.4 129.38 C34.85 84.45, 72.6 42.89, 100.61 12.39 M-0.19 128.61 C19.88 105.82, 40.03 83.25, 98.63 14.93 M-1.73 134.77 C36.46 93.74, 70.79 56.3, 99.85 21.32 M-0.38 134.41 C28.93 101.72, 58.16 69.53, 98.83 20.49 M1.59 141.17 C25.46 110.39, 51.48 79.46, 99.12 28.08 M-0.79 140.74 C25.03 111.11, 52.03 80.56, 99.23 26 M1.29 144.62 C23.98 120.67, 43.11 94.49, 97.6 32.68 M-0.25 145.77 C26.93 116.42, 54.73 86.08, 100.25 32.94 M-1.47 151.3 C28.56 120.56, 58.1 87.01, 99.47 37.69 M-0.67 151.8 C20.52 128.14, 42.16 103.89, 98.47 39.16 M1.57 159.15 C23.93 133.95, 47.57 107.21, 98.56 43.9 M0.09 158.96 C29.6 124.24, 58.56 90.94, 98.73 45.66 M-0.15 165.11 C19.73 142.43, 40.15 119.94, 98.42 51.5 M-0.33 163.55 C23.15 137.27, 47.9 112.18, 98.6 49.86 M0.07 170.26 C28.28 137.91, 52.85 106.9, 98.47 55.29 M-0.25 171.34 C33.93 132.89, 64.76 96.47, 99.86 55.93 M-1.13 175.53 C27.43 144.06, 56.73 115.6, 100.61 62.35 M0.06 176.25 C27.5 144.95, 55.77 112.98, 99.62 62.5 M-0.36 182.67 C35.82 142.6, 68.35 105.3, 100.04 66.99 M-0.33 183.52 C29.27 149.86, 58.9 114.88, 98.51 68.76 M1.16 189.86 C35.52 150.47, 71.66 109.2, 99.94 76.45 M-1.04 188.35 C31.44 154.14, 62.55 116.7, 99.73 76.2 M1.71 192.95 C31.38 161.08, 61.62 126.18, 97.53 82.02 M0.22 195.28 C26.89 164.08, 52.39 134.43, 98.55 80.87 M1.17 200.68 C35.1 160.65, 66.96 125.82, 100.2 88.32 M-0.91 200.47 C30.12 166.86, 57.43 134.53, 98.84 86.75 M-0.35 208.29 C27.27 175.06, 57.35 140.82, 98.11 92.94 M-0.39 207.39 C25.56 177.94, 52.15 146.89, 99.12 92.41 M0.3 212.49 C32.5 175.64, 68.61 137.13, 101.09 99.37 M0.5 212.97 C35.67 170.35, 71.32 130.44, 99.73 100.17 M0.02 221.18 C35.94 180.79, 68.49 140, 99.2 104.71 M0.15 219.3 C20.82 195.56, 42.04 171.18, 98.99 106.76 M-0.51 224.58 C32.16 188.75, 59.85 153.79, 98.9 112.82 M0.19 225.92 C27.65 195.96, 52.08 165.81, 99.61 110.69 M-0.7 232.48 C35.07 192.47, 67.3 152.91, 97.1 117.58 M-0.06 231.14 C28.07 201.55, 53.61 169.95, 98.24 118.48 M0.59 237.86 C24.47 211.91, 46.8 184.37, 99.81 124.5 M0.48 236.8 C33.65 198.51, 67.98 157.45, 98.5 124.46 M1.88 241.89 C30.75 207.59, 58.31 174.21, 101.02 129.69 M-0.11 243.29 C23.51 216.48, 47.52 190.04, 99.23 130.83 M0.37 248.82 C33.86 208.74, 68.13 170.53, 97.26 137.57 M-0.04 249.59 C34.02 212.63, 65.48 176.35, 99.54 135.38 M6.65 248.16 C27.53 223.17, 52.95 197.44, 97.77 140 M5.29 249.52 C38.41 211.68, 71.15 175.83, 98.31 141.81 M11 247.47 C32.12 223.71, 53.68 200.46, 100.55 149.54 M11.01 249.62 C42.72 212.88, 74.16 175.81, 98.66 149 M15.16 250.93 C49.25 215.67, 77.78 181.84, 101.05 155.07 M16.98 249.83 C40.74 219.6, 66.22 192.21, 100.09 153.82 M22.55 247.58 C39.52 230.39, 56.56 209.88, 100.93 158.77 M21.35 248.83 C48.57 217.4, 74.94 186.85, 99.61 160.12 M24.93 248.98 C45.94 228.07, 60.65 209.23, 100.8 167.8 M25.69 249.75 C44.2 231.52, 59.47 211.48, 97.86 167.52 M32.5 248.42 C58.05 219.84, 81.07 194.94, 100.21 171.46 M32.46 248.53 C47.11 230.88, 63.83 214.16, 99.58 172.71 M37.97 250.11 C61.4 221.43, 87.07 192.69, 99.85 180.43 M37.5 249.18 C58.56 227.12, 76.31 205.73, 99.15 179.72 M41.25 248.86 C56.98 233, 69.34 220.04, 100.11 184.4 M42.12 248.51 C61.08 228.5, 78.23 209.4, 99.58 183.7 M46.21 251.01 C67.84 224.47, 90.14 204.57, 99.96 191.06 M48.31 249.24 C67.29 226.83, 87.04 205.01, 98.82 190.97 M54.07 249.37 C70.99 232.1, 83.37 214.85, 99.58 195.73 M53.43 249.98 C67.8 233.44, 80.76 217.35, 98.74 196.75 M60.15 248.18 C71.18 235.79, 87.85 217.88, 98.46 204.61 M59.47 250.27 C70.74 234.42, 83.51 220.2, 98.7 203.5 M63.18 250 C76.99 234.62, 88.01 223.81, 99.48 207.92 M63.75 248.62 C76.12 236.66, 85.95 224.59, 99.97 210.19 M70.18 248.72 C79 238.99, 88.1 226.77, 97.58 215.61 M70.14 249.55 C75.66 242.31, 82.74 234.58, 99.89 215.02 M73.68 248.41 C83.93 237.84, 93.13 229.74, 100.57 222.3 M75.77 249.57 C81.54 241.17, 87.63 234.23, 99 220.56 M80.62 248.34 C88.61 239.75, 93.03 232, 97.8 226.95 M80.27 250.3 C84.55 244.35, 89.82 238.77, 99.16 228.42 M85.58 249.84 C90.78 243.72, 93.18 239.38, 100.21 234.04 M86.47 248.41 C87.49 246.06, 91.32 242.94, 100.01 232.61 M91.25 249.41 C93.61 247.14, 95.53 244.24, 98.65 240.44 M89.91 249.01 C92.53 247.28, 94.05 244.78, 98.68 239.78 M96.03 249.16 C97.5 247.75, 97.99 246.79, 98.94 245.77 M96.1 248.92 C97.31 248.09, 98.23 246.71, 99.54 245.31" stroke="#4c6ef5" stroke-width="0.5" fill="none"></path><path d="M1.58 1.58 C28.74 -2.62, 55.97 -1.47, 97.95 -0.95 M0.26 0.47 C27.8 0.42, 54.88 -0.66, 96.73 -0.63 M96.93 0.6 C97.01 67.41, 97.44 133.79, 98.06 247.37 M96.52 0.4 C96.31 84.51, 97.53 169.98, 97.57 248.65 M96.63 247.19 C63.25 248.3, 30.12 247.16, -0.95 250.33 M97.71 248.16 C66.06 247.96, 34.83 248.64, -0.21 249.12 M0.04 247.95 C-1.62 186.23, 1.04 122.03, -0.07 0.63 M-0.16 248.24 C0.01 194.98, -0.37 141.44, 0.39 0.69" stroke="#000000" stroke-width="1" fill="none"></path></g><g stroke-linecap="round"><g transform="translate(17 322) rotate(0 0.5872500379662995 91.76154867293315)"><path d="M0.86 1.06 C1.1 31.36, 1.15 151.72, 1.32 181.96 M-0.15 0.58 C-0.02 30.97, 0.26 152.45, 0.54 182.95" stroke="#000000" stroke-width="1" fill="none"></path></g></g><g stroke-linecap="round"><g transform="translate(18 504) rotate(0 230.6737133138161 -0.686478469353176)"><path d="M-0.78 -1.18 C75.79 -1.16, 382.98 -0.44, 459.96 -0.39 M1.01 0.82 C77.9 0.52, 385.56 -2.13, 462.13 -2.19" stroke="#000000" stroke-width="1" fill="none"></path></g></g><g stroke-linecap="round"><g transform="translate(18 477) rotate(0 230.9790181591921 -87.71563911961016)"><path d="M-0.62 0.47 C8.88 0.6, 39.53 4.65, 57.17 0.24 C74.81 -4.18, 92.09 -11.72, 105.2 -26.01 C118.3 -40.31, 127.58 -65.81, 135.79 -85.55 C144.01 -105.29, 147.54 -130.66, 154.5 -144.45 C161.46 -158.23, 166.8 -163.17, 177.54 -168.27 C188.29 -173.37, 207.7 -173.86, 218.97 -175.02 C230.24 -176.18, 235.83 -180.33, 245.16 -175.24 C254.49 -170.15, 267.55 -160.84, 274.93 -144.49 C282.31 -128.14, 283.58 -98.85, 289.45 -77.13 C295.32 -55.4, 294.88 -25.91, 310.15 -14.15 C325.41 -2.38, 355.69 -7.8, 381.04 -6.55 C406.39 -5.29, 448.7 -6.6, 462.23 -6.61 M1.25 -0.32 C10.69 -0.54, 39.54 2.3, 56.84 -1.76 C74.14 -5.82, 91.79 -10.96, 105.06 -24.7 C118.33 -38.45, 128.42 -64.37, 136.46 -84.21 C144.5 -104.06, 146.25 -129.56, 153.29 -143.76 C160.33 -157.97, 167.75 -164.54, 178.71 -169.45 C189.68 -174.36, 208.07 -172.29, 219.07 -173.25 C230.08 -174.2, 235.63 -179.78, 244.74 -175.18 C253.86 -170.57, 266.22 -161.95, 273.75 -145.61 C281.28 -129.27, 283.79 -98.66, 289.93 -77.12 C296.06 -55.58, 295.5 -28.1, 310.54 -16.37 C325.59 -4.64, 354.83 -8.17, 380.17 -6.73 C405.51 -5.3, 449 -7.69, 462.58 -7.76" stroke="#000000" stroke-width="1" fill="none"></path></g></g><g stroke-linecap="round" transform="translate(143 326) rotate(0 6.5 88)"><path d="M0.3 -0.08 C2.93 -0.95, 4.44 0.51, 11.79 -0.92 M-0.02 -0.04 C4.76 -0.39, 8.79 0.08, 13.41 -0.41 M13.09 -1.2 C12.45 57.22, 13.43 113.75, 12.24 176.87 M13.46 -0.52 C14.82 69.53, 14.52 138.6, 13.81 175.35 M13.9 174.97 C8.64 175.27, 5.45 175.42, -0.69 177.14 M13.14 176.09 C9.67 176.07, 5.51 176.55, 0.23 176.26 M0.75 175.95 C-1.55 107.73, 0.86 38.3, -1.69 0.18 M-0.94 176.34 C-1.82 115.51, -0.98 53, -0.81 -0.66" stroke="#000000" stroke-width="1" fill="none"></path></g><g stroke-linecap="round" transform="translate(157.5 326) rotate(0 6.5 88)"><path d="M-1.11 -0.34 C5.81 -1.21, 9.17 -0.44, 11.89 -1.1 M-0.56 -0.31 C4.2 -0.02, 8.69 0.34, 12.9 -0.01 M12.37 -1.76 C13.45 68.95, 10.65 138.37, 13 174.01 M12.09 0.61 C12.96 67.14, 13.13 136.27, 13.2 176.52 M12.99 176.5 C10.62 177.18, 5.54 177.24, -0.5 175.23 M12.63 175.48 C9.78 176.43, 6.13 176.14, 0.47 175.87 M0.4 176.46 C0.99 126.13, -0.36 73.47, 1.03 -1.56 M0.56 176.2 C-0.4 109.61, -1.47 43.85, 0.17 0.02" stroke="#000000" stroke-width="1" fill="none"></path></g><g transform="translate(28 378) rotate(0 53.5 12.5)"><text x="0" y="18" font-family="Virgil, Segoe UI Emoji" font-size="20px" fill="#000000" text-anchor="start" style="white-space: pre;" direction="ltr">I''(x,y) &gt; 0</text></g><g transform="translate(174 367) rotate(0 54.5 12.5)"><text x="0" y="18" font-family="Virgil, Segoe UI Emoji" font-size="20px" fill="#000000" text-anchor="start" style="white-space: pre;" direction="ltr">I''(x,y) &lt; 0</text></g><g stroke-linecap="round"><g transform="translate(74 228) rotate(0 37.114059623312215 60.4547318309173)"><path d="M-0.05 0.8 C12.75 20.84, 63.38 99.44, 75.76 119.13 M-1.53 0.17 C11.26 20.52, 62.17 100.72, 75.21 120.73" stroke="#000000" stroke-width="1" fill="none"></path></g><g transform="translate(74 228) rotate(0 37.114059623312215 60.4547318309173)"><path d="M52.69 103.82 C56.54 105.2, 61.38 109.67, 73.74 120.53 M50.55 103.53 C57.31 107.57, 63.8 111.43, 76.02 120.84" stroke="#000000" stroke-width="1" fill="none"></path></g><g transform="translate(74 228) rotate(0 37.114059623312215 60.4547318309173)"><path d="M69.95 92.74 C69.99 96.49, 71.11 103.35, 73.74 120.53 M67.82 92.44 C70.3 99.14, 72.5 105.75, 76.02 120.84" stroke="#000000" stroke-width="1" fill="none"></path></g></g><g stroke-linecap="round"><g transform="translate(71 227) rotate(0 46.786866377126444 47.974617719613036)"><path d="M0.13 -0.4 C16 15.57, 78.94 80.17, 94.84 96.39 M-1.27 -1.65 C14.47 14.41, 77.76 80.97, 93.81 97.6" stroke="#000000" stroke-width="1" fill="none"></path></g><g transform="translate(71 227) rotate(0 46.786866377126444 47.974617719613036)"><path d="M66.24 84.07 C73.09 88.68, 81.08 92.68, 94.49 98.48 M66.4 84.51 C73.28 86.6, 79.93 91.09, 94.74 98.36" stroke="#000000" stroke-width="1" fill="none"></path></g><g transform="translate(71 227) rotate(0 46.786866377126444 47.974617719613036)"><path d="M81.06 69.88 C84.05 78.27, 88.11 86.04, 94.49 98.48 M81.23 70.32 C84.28 76.02, 87.22 84.06, 94.74 98.36" stroke="#000000" stroke-width="1" fill="none"></path></g></g><g transform="translate(10 199) rotate(0 49.5 12.5)"><text x="0" y="18" font-family="Virgil, Segoe UI Emoji" font-size="20px" fill="#000000" text-anchor="start" style="white-space: pre;" direction="ltr">I'(x,y) &gt; t</text></g></svg>
